<svg xmlns="http://www.w3.org/2000/svg" viewBox="0 0 400 400" width="100%" height="100%" role="img" aria-label="SORROW MASS&#x27;S TOKEN">
  <defs>
    <radialGradient id="bgb06afb" cx="50%" cy="42%" r="58%">
      <stop offset="0%" stop-color="#111827"/>
      <stop offset="100%" stop-color="#030712"/>
    </radialGradient>
    <radialGradient id="glb06afb" cx="50%" cy="46%" r="42%">
      <stop offset="0%" stop-color="#c9a86a" stop-opacity=".22"/>
      <stop offset="100%" stop-color="#000" stop-opacity="0"/>
    </radialGradient>
  </defs>
  <rect x="6" y="6" width="388" height="388" rx="14" fill="url(#bgb06afb)" stroke="#c9a86a" stroke-width="2.4"/>
  <rect x="14" y="14" width="372" height="372" rx="10" fill="none" stroke="#f1df76" stroke-width="1" stroke-dasharray="7 4" opacity=".35"/>
  <circle cx="200" cy="188" r="128" fill="url(#glb06afb)"/>
  <g transform="rotate(8 200.0 180.0)">
    <circle cx="200.0" cy="180.0" r="83" fill="#c9a86a" fill-opacity=".16" stroke="#c9a86a" stroke-width="3"/>
    <circle cx="200.0" cy="180.0" r="45.7" fill="none" stroke="#c9a86a" stroke-width="1.6" opacity=".8"/>
    <path d="M191.8 157.2 L192.3 193.7" fill="none" stroke="#e0f2fe" stroke-width="1.6" opacity=".75"/>
    <path d="M185.6 157.2 L204.2 193.7" fill="none" stroke="#e0f2fe" stroke-width="1.6" opacity=".75"/>
    <path d="M305.5 157.2 L212.1 193.7" fill="none" stroke="#e0f2fe" stroke-width="1.6" opacity=".75"/>
    <path d="M242.5 157.2 L198.1 193.7" fill="none" stroke="#e0f2fe" stroke-width="1.6" opacity=".75"/>
    <path d="M211.0 157.2 L191.1 193.7" fill="none" stroke="#e0f2fe" stroke-width="1.6" opacity=".75"/>
    <circle cx="200.0" cy="180.0" r="8" fill="#c9a86a" fill-opacity=".7"/>
    <path d="M200.0 263.0 L190.0 252.0 L210.0 252.0 Z" fill="#c9a86a" fill-opacity=".4"/>
  </g>
  <text x="16" y="380" font-family="monospace" font-size="15" letter-spacing="2" fill="#c9a86a">MAW-G-925-01</text>
</svg>