<svg xmlns="http://www.w3.org/2000/svg" viewBox="0 0 400 400" width="100%" height="100%" role="img" aria-label="THE SILENCED LYRE">
  <defs>
    <radialGradient id="bg021" cx="50%" cy="42%" r="58%">
      <stop offset="0%" stop-color="#111827"/>
      <stop offset="100%" stop-color="#030712"/>
    </radialGradient>
    <radialGradient id="g0021" cx="50%" cy="46%" r="50%">
      <stop offset="0%" stop-color="#38bdf8" stop-opacity=".22"/>
      <stop offset="100%" stop-color="#000" stop-opacity="0"/>
    </radialGradient>
    <linearGradient id="arm021" x1="0" y1="0" x2="1" y2="0">
      <stop offset="0" stop-color="#7dd3fc"/>
      <stop offset="1" stop-color="#0c4a6e"/>
    </linearGradient>
    <filter id="f021b" x="-50%" y="-50%" width="200%" height="200%">
      <feGaussianBlur stdDeviation="3"/>
    </filter>
  </defs>
  <rect x="6" y="6" width="388" height="388" rx="14" fill="url(#bg021)" stroke="#38bdf8" stroke-width="2.4"/>
  <rect x="14" y="14" width="372" height="372" rx="10" fill="none" stroke="#f1df76" stroke-width="1" stroke-dasharray="7 4" opacity=".35"/>
  <circle cx="200" cy="188" r="132" fill="url(#g0021)"/>
  <rect x="18" y="18" width="122" height="26" rx="3" fill="#090d16" stroke="#38bdf8" stroke-width="1.2"/>
  <text x="30" y="36" fill="#38bdf8" font-family="Impact, Arial Black, sans-serif" font-size="12" letter-spacing="2">GIFT</text>

  <!-- calmed room -->
  <g stroke="#38bdf8" stroke-width="1" opacity=".25">
    <path d="M76 108 L116 108 M300 296 L336 296"/>
  </g>

  <!-- Silenced Lyre: open U-frame lyre, one silenced string -->
  <!-- left arm -->
  <path d="M150 132 L150 252 Q150 278 176 282 L176 262 Q164 258 164 248 L164 132 Z" fill="url(#arm021)" stroke="#7dd3fc" stroke-width="1.6"/>
  <!-- right arm -->
  <path d="M250 132 L250 252 Q250 278 224 282 L224 262 Q236 258 236 248 L236 132 Z" fill="url(#arm021)" stroke="#7dd3fc" stroke-width="1.6"/>
  <!-- bridge -->
  <path d="M164 274 Q200 296 236 274 L236 262 Q200 282 164 262 Z" fill="#082f49" stroke="#7dd3fc" stroke-width="2"/>
  <!-- top crossbar -->
  <path d="M150 132 L250 132" stroke="#7dd3fc" stroke-width="3"/>
  <path d="M140 132 L150 132 M250 132 L260 132" stroke="#7dd3fc" stroke-width="2"/>
  <!-- strings -->
  <path d="M172 136 L172 268 M200 136 L200 278 M228 136 L228 268" stroke="#38bdf8" stroke-width="1.4" opacity=".8"/>
  <!-- one silenced string (broken line) -->
  <path d="M186 136 L186 204 M186 220 L186 268" stroke="#f1df76" stroke-width="2" stroke-dasharray="6 5"/>
  <circle cx="186" cy="136" r="4" fill="#f1df76"/>
  <!-- calm halo -->
  <circle cx="200" cy="200" r="92" fill="none" stroke="#38bdf8" stroke-width="1" opacity=".4" filter="url(#f021b)"/>
</svg>
