<svg xmlns="http://www.w3.org/2000/svg" viewBox="0 0 400 400" width="100%" height="100%" role="img" aria-label="WEAPON 1006">
  <defs>
    <radialGradient id="bg1006" cx="50%" cy="42%" r="58%"><stop offset="0%" stop-color="#111318"/><stop offset="100%" stop-color="#08090c"/></radialGradient>
    <radialGradient id="gl1006" cx="50%" cy="46%" r="50%"><stop offset="0%" stop-color="#475569" stop-opacity=".20"/><stop offset="100%" stop-color="#000" stop-opacity="0"/></radialGradient>
  </defs>
  <rect x="6" y="6" width="388" height="388" rx="14" fill="url(#bg1006)" stroke="#94a3b8" stroke-width="2.4"/>
  <rect x="14" y="14" width="372" height="372" rx="10" fill="none" stroke="#f1df76" stroke-width="1" stroke-dasharray="7 4" opacity=".35"/>
  <circle cx="200" cy="188" r="132" fill="url(#gl1006)"/>
  <rect x="18" y="18" width="122" height="26" rx="3" fill="#08090c" stroke="#94a3b8" stroke-width="1.2"/>
  <text x="30" y="36" fill="#94a3b8" font-family="Impact, Arial Black, sans-serif" font-size="12" letter-spacing="2">WEAPON</text>
  <!-- thorn variant W-1006 off=2 wob=2 -->
  <path d="M184 48 L 224 48 L 224 232 L 184 232 Z" fill="#334155" stroke="#94a3b8" stroke-width="2"/>
  <path d="M194 232 L 214 232 L 212 314 C 212 322, 196 322, 196 314 Z" fill="#08090c" stroke="#94a3b8" stroke-width="1.2"/>
  <circle cx="204" cy="326" r="7" fill="#08090c" stroke="#94a3b8" stroke-width="1.2"/>
  <text x="16" y="380" font-family="monospace" font-size="15" letter-spacing="2" fill="#94a3b8">MAW-W-1006-01</text>
  <rect x="126" y="326" width="5" height="4" fill="#fff" opacity=".0"/>
  <circle cx="126" cy="346" r="2" fill="#000" opacity=".0"/>
</svg>