<svg xmlns="http://www.w3.org/2000/svg" viewBox="0 0 400 400" width="100%" height="100%" role="img" aria-label="FROZEN FURY VEIL">
  <!-- SOURCE-DERIVED ART: TYPE + TITLE + APPEARANCE + FUNCTION -->
  <!-- SUIT // VEIL -->
  <defs>
    <radialGradient id="bge4d87b" cx="50%" cy="42%" r="58%">
      <stop offset="0%" stop-color="#111827"/>
      <stop offset="100%" stop-color="#030712"/>
    </radialGradient>
    <radialGradient id="gle4d87b" cx="50%" cy="46%" r="42%">
      <stop offset="0%" stop-color="#8a8f98" stop-opacity=".2"/>
      <stop offset="100%" stop-color="#000" stop-opacity="0"/>
    </radialGradient>
  </defs>
  <rect x="6" y="6" width="388" height="388" rx="14" fill="url(#bge4d87b)" stroke="#8a8f98" stroke-width="2.4"/>
  <rect x="14" y="14" width="372" height="372" rx="10" fill="none" stroke="#f1df76" stroke-width="1" stroke-dasharray="7 4" opacity=".35"/>
  <circle cx="200" cy="188" r="117" fill="url(#gle4d87b)"/>
  <g transform="rotate(12 200.0 192.0)">
<path d="M130.0 130.1 Q200.0 95.7 270.0 130.1 L264.4 245.3 Q200.0 271.1 135.6 245.3 Z" fill="#8a8f98" fill-opacity=".16" stroke="#8a8f98" stroke-width="3"/>
<path d="M138.0 153.3 Q200.0 167.3 262.0 149.3" stroke="#e0f2fe" stroke-width="1" opacity=".45"/>
<path d="M138.0 173.3 Q200.0 187.3 262.0 169.3" stroke="#e0f2fe" stroke-width="1" opacity=".45"/>
<path d="M138.0 193.3 Q200.0 207.3 262.0 189.3" stroke="#e0f2fe" stroke-width="1" opacity=".45"/>
<path d="M138.0 213.3 Q200.0 227.3 262.0 209.3" stroke="#e0f2fe" stroke-width="1" opacity=".45"/>
<circle cx="200.0" cy="133.5" r="7" fill="#8a8f98" fill-opacity=".65"/>
  </g>
  <g transform="rotate(-16 200.0 236.0)">    <path d="M136.0 208.0 Q200.0 226.0 264.0 202.0" fill="none" stroke="#8a8f98" stroke-width="1.2" opacity=".4"/>
  </g>
  <g transform="rotate(-16 200.0 236.0)">    <path d="M136.0 238.0 Q200.0 256.0 264.0 232.0" fill="none" stroke="#8a8f98" stroke-width="1.2" opacity=".4"/>
  </g>
  <g transform="rotate(-16 200.0 236.0)">    <path d="M136.0 268.0 Q200.0 286.0 264.0 262.0" fill="none" stroke="#8a8f98" stroke-width="1.2" opacity=".4"/>
  </g>
  <g transform="rotate(-9 200.0 320.0)" opacity=".9">
    <circle cx="200.0" cy="320.0" r="4.8" fill="none" stroke="#8a8f98" stroke-width="1.4" opacity=".42"/>
  </g>
  <g transform="rotate(-14 200.0 236.0)" opacity=".9">
    <path d="M182.7 236.0 Q200.0 217.3 217.3 236.0" fill="none" stroke="#e0f2fe" stroke-width="2.4" opacity=".38"/>
  </g>
  <text x="16" y="380" font-family="monospace" font-size="15" letter-spacing="2" fill="#8a8f98">MAW-S-668-01</text>
</svg>