<svg xmlns="http://www.w3.org/2000/svg" viewBox="0 0 400 400" width="100%" height="100%" role="img" aria-label="WEAPON 929">
  <defs>
    <radialGradient id="bg929" cx="50%" cy="42%" r="58%"><stop offset="0%" stop-color="#181206"/><stop offset="100%" stop-color="#0d0a04"/></radialGradient>
    <radialGradient id="gl929" cx="50%" cy="46%" r="50%"><stop offset="0%" stop-color="#92400e" stop-opacity=".20"/><stop offset="100%" stop-color="#000" stop-opacity="0"/></radialGradient>
  </defs>
  <rect x="6" y="6" width="388" height="388" rx="14" fill="url(#bg929)" stroke="#d97706" stroke-width="2.4"/>
  <rect x="14" y="14" width="372" height="372" rx="10" fill="none" stroke="#f1df76" stroke-width="1" stroke-dasharray="7 4" opacity=".35"/>
  <circle cx="200" cy="188" r="132" fill="url(#gl929)"/>
  <rect x="18" y="18" width="122" height="26" rx="3" fill="#0d0a04" stroke="#d97706" stroke-width="1.2"/>
  <text x="30" y="36" fill="#d97706" font-family="Impact, Arial Black, sans-serif" font-size="12" letter-spacing="2">WEAPON</text>
  <!-- maul variant W-929 off=2 wob=8 -->
  <path d="M172 56 L 236 56 L 236 128 L 172 128 Z" fill="#57534e" stroke="#d97706" stroke-width="2"/>
  <path d="M196 128 L 212 128 L 212 232 L 196 232 Z" fill="#44403c" stroke="#d97706" stroke-width="1.6"/>
  <path d="M192 232 L 216 232 L 214 314 C 214 322, 194 322, 194 314 Z" fill="#0d0a04" stroke="#d97706" stroke-width="1.2"/>
  <circle cx="204" cy="326" r="7" fill="#0d0a04" stroke="#d97706" stroke-width="1.2"/>
  <text x="16" y="380" font-family="monospace" font-size="15" letter-spacing="2" fill="#d97706">MAW-W-929-01</text>
  <rect x="129" y="329" width="6" height="5" fill="#fff" opacity=".0"/>
  <circle cx="109" cy="341" r="3" fill="#000" opacity=".0"/>
</svg>