<svg xmlns="http://www.w3.org/2000/svg" viewBox="0 0 800 600" width="800" height="600">
  <defs>
    <linearGradient id="mat-grad" x1="0%" y1="0%" x2="100%" y2="100%">
      <stop offset="0%" stop-color="#0a0e17"/>
      <stop offset="100%" stop-color="#030509"/>
    </linearGradient>
    <linearGradient id="plaque-grad" x1="0%" y1="0%" x2="0%" y2="100%">
      <stop offset="0%" stop-color="#1e2738"/>
      <stop offset="100%" stop-color="#0f1622"/>
    </linearGradient>
  </defs>

  <!-- 1. Museum Matte Border -->
  <rect width="800" height="600" fill="url(#mat-grad)"/>

  <!-- Outer Filigree Frame -->
  <rect x="30" y="30" width="740" height="540" fill="none" stroke="#a855f7" stroke-width="2" stroke-opacity="0.7"/>
  <rect x="36" y="36" width="728" height="528" fill="none" stroke="#334155" stroke-width="1"/>

  <!-- Decorative Corner Fleurons -->
  <path d="M 46 60 L 46 46 L 60 46" fill="none" stroke="#a855f7" stroke-width="2.5"/>
  <path d="M 754 60 L 754 46 L 740 46" fill="none" stroke="#a855f7" stroke-width="2.5"/>
  <path d="M 46 540 L 46 554 L 60 554" fill="none" stroke="#a855f7" stroke-width="2.5"/>
  <path d="M 754 540 L 754 554 L 740 554" fill="none" stroke="#a855f7" stroke-width="2.5"/>

  <!-- 2. Illustrative Art Canvas -->
  
      <!-- The Debt Scale Altar Scene -->
      <ellipse cx="400" cy="470" rx="220" ry="32" fill="#0b111a"/>
      <!-- Altar Block -->
      <rect x="300" y="410" width="200" height="60" rx="4" fill="#1e293b" stroke="#a855f7" stroke-width="2"/>
      <!-- Ornate Balance Scale -->
      <line x1="400" y1="200" x2="400" y2="410" stroke="#a855f7" stroke-width="6" stroke-linecap="round"/>
      <line x1="260" y1="240" x2="540" y2="240" stroke="#a855f7" stroke-width="4" stroke-linecap="round"/>
      <circle cx="400" cy="240" r="8" fill="#ffffff" stroke="#a855f7" stroke-width="2"/>
      <!-- Left Pan (Weighted Down with Sins) -->
      <line x1="260" y1="240" x2="230" y2="330" stroke="#94a3b8" stroke-width="2"/>
      <line x1="260" y1="240" x2="290" y2="330" stroke="#94a3b8" stroke-width="2"/>
      <path d="M 220 330 Q 260 360 300 330 Z" fill="#0f172a" stroke="#a855f7" stroke-width="2"/>
      <!-- Black Stones in Left Pan -->
      <circle cx="250" cy="328" r="8" fill="#020617"/>
      <circle cx="270" cy="326" r="9" fill="#020617"/>
      <!-- Right Pan (Floating Light) -->
      <line x1="540" y1="240" x2="510" y2="300" stroke="#94a3b8" stroke-width="2"/>
      <line x1="540" y1="240" x2="570" y2="300" stroke="#94a3b8" stroke-width="2"/>
      <path d="M 500 300 Q 540 330 580 300 Z" fill="#0f172a" stroke="#a855f7" stroke-width="2"/>
      <polygon points="540,285 548,298 532,298" fill="#a855f7"/>
        

  <!-- 3. Engraved Brass Nameplate Plaque (Bottom Center) -->
  <rect x="180" y="515" width="440" height="46" rx="4" fill="url(#plaque-grad)" stroke="#a855f7" stroke-width="1.5"/>
  <text x="400" y="535" text-anchor="middle" font-family="'Cinzel', Georgia, serif" font-size="14" font-weight="bold" fill="#f8fafc" letter-spacing="1">SCALE BEARER IN CORRIDOR</text>
  <text x="400" y="551" text-anchor="middle" font-family="'Segoe UI', Roboto, sans-serif" font-size="9.5" fill="#a855f7" letter-spacing="1">ARCHIVAL EXHIBITION PLATE ◈ FACILITY 01 MONOLITH</text>
</svg>