<svg xmlns="http://www.w3.org/2000/svg" viewBox="0 0 1200 320" width="1200" height="320"><defs><linearGradient id="skyG" x1="0" y1="0" x2="0" y2="1"><stop offset="0%" stop-color="#1d1306"/><stop offset="55%" stop-color="#0a0704"/><stop offset="100%" stop-color="#010203"/></linearGradient><radialGradient id="vigG" cx="50%" cy="42%" r="78%"><stop offset="0%" stop-color="#000000" stop-opacity="0"/><stop offset="62%" stop-color="#000000" stop-opacity="0"/><stop offset="100%" stop-color="#000000" stop-opacity="0.62"/></radialGradient><radialGradient id="coreG" cx="50%" cy="50%" r="50%"><stop offset="0%" stop-color="#fff3d6"/><stop offset="35%" stop-color="#ffc94d"/><stop offset="100%" stop-color="#ffc94d" stop-opacity="0"/></radialGradient><linearGradient id="giltG" x1="0" y1="0" x2="1" y2="1"><stop offset="0%" stop-color="#d8b26a"/><stop offset="50%" stop-color="#f4e3bb"/><stop offset="100%" stop-color="#7a5a26"/></linearGradient><linearGradient id="ironG" x1="0" y1="0" x2="0" y2="1"><stop offset="0%" stop-color="#5b6b85"/><stop offset="45%" stop-color="#232c3d"/><stop offset="100%" stop-color="#0c1119"/></linearGradient><filter id="glowF" x="-60%" y="-60%" width="220%" height="220%"><feGaussianBlur stdDeviation="4" result="b"/><feMerge><feMergeNode in="b"/><feMergeNode in="SourceGraphic"/></feMerge></filter><filter id="bloomF" x="-80%" y="-80%" width="260%" height="260%"><feGaussianBlur stdDeviation="11" result="b"/><feMerge><feMergeNode in="b"/><feMergeNode in="b"/><feMergeNode in="SourceGraphic"/></feMerge></filter><filter id="softF" x="-40%" y="-40%" width="180%" height="180%"><feDropShadow dx="0" dy="4" stdDeviation="5" flood-color="#000000" flood-opacity="0.65"/></filter><filter id="grainF" x="0" y="0" width="100%" height="100%"><feTurbulence type="fractalNoise" baseFrequency="0.9" numOctaves="2" stitchTiles="stitch" result="n"/><feColorMatrix in="n" type="matrix" values="0 0 0 0 1 0 0 0 0 1 0 0 0 0 1 0 0 0 0.045 0"/></filter></defs><rect width="1200" height="320" fill="url(#skyG)"/><circle cx="120.7" cy="165.4" r="1.44" fill="#e8e2d2" opacity="0.49"/><circle cx="728.0" cy="30.6" r="0.81" fill="#ffffff" opacity="0.48"/><circle cx="332.4" cy="191.9" r="1.35" fill="#bcd2ff" opacity="0.48"/><circle cx="691.0" cy="105.2" r="0.63" fill="#ffffff" opacity="0.83"/><circle cx="446.5" cy="55.1" r="0.88" fill="#e8e2d2" opacity="0.38"/><circle cx="1071.8" cy="131.7" r="0.93" fill="#bcd2ff" opacity="0.32"/><circle cx="953.8" cy="15.5" r="1.33" fill="#ffffff" opacity="0.77"/><circle cx="1125.2" cy="20.0" r="1.70" fill="#ffffff" opacity="0.68"/><circle cx="202.4" cy="30.1" r="1.02" fill="#ffffff" opacity="0.57"/><circle cx="307.0" cy="25.6" r="0.90" fill="#ffffff" opacity="0.47"/><circle cx="689.9" cy="74.6" r="1.54" fill="#ffffff" opacity="0.38"/><circle cx="682.2" cy="26.4" r="1.45" fill="#ffffff" opacity="0.54"/><circle cx="102.3" cy="37.9" r="1.61" fill="#ffffff" opacity="0.41"/><circle cx="1167.5" cy="133.4" r="0.53" fill="#bcd2ff" opacity="0.67"/><circle cx="743.9" cy="1.2" r="1.57" fill="#bcd2ff" opacity="0.41"/><circle cx="620.5" cy="72.6" r="0.54" fill="#e8e2d2" opacity="0.79"/><circle cx="337.0" cy="55.2" r="1.20" fill="#e8e2d2" opacity="0.70"/><circle cx="1147.3" cy="174.2" r="1.25" fill="#ffffff" opacity="0.79"/><circle cx="541.6" cy="170.5" r="0.68" fill="#e8e2d2" opacity="0.84"/><circle cx="328.9" cy="87.2" r="0.84" fill="#e8e2d2" opacity="0.52"/><circle cx="245.3" cy="134.6" r="1.36" fill="#bcd2ff" opacity="0.71"/><circle cx="836.9" cy="73.9" r="1.33" fill="#bcd2ff" opacity="0.46"/><circle cx="1043.5" cy="5.1" r="0.87" fill="#e8e2d2" opacity="0.76"/><circle cx="1028.5" cy="28.2" r="1.25" fill="#ffffff" opacity="0.53"/><circle cx="492.6" cy="6.3" r="1.17" fill="#ffffff" opacity="0.79"/><circle cx="1027.7" cy="78.5" r="0.58" fill="#e8e2d2" opacity="0.25"/><circle cx="715.0" cy="27.7" r="0.98" fill="#bcd2ff" opacity="0.76"/><circle cx="823.3" cy="150.7" r="1.63" fill="#bcd2ff" opacity="0.37"/><circle cx="849.1" cy="137.1" r="0.73" fill="#e8e2d2" opacity="0.50"/><circle cx="217.4" cy="121.3" r="0.54" fill="#ffffff" opacity="0.80"/><circle cx="33.7" cy="34.4" r="1.23" fill="#e8e2d2" opacity="0.54"/><circle cx="714.4" cy="107.4" r="0.98" fill="#ffffff" opacity="0.41"/><circle cx="304.1" cy="13.0" r="1.36" fill="#bcd2ff" opacity="0.44"/><circle cx="479.2" cy="37.6" r="1.34" fill="#ffffff" opacity="0.78"/><circle cx="351.5" cy="152.2" r="1.70" fill="#ffffff" opacity="0.88"/><circle cx="786.6" cy="109.3" r="1.46" fill="#e8e2d2" opacity="0.88"/><circle cx="942.8" cy="125.2" r="0.85" fill="#ffffff" opacity="0.83"/><circle cx="1142.7" cy="122.3" r="0.76" fill="#bcd2ff" opacity="0.75"/><circle cx="610.5" cy="133.6" r="0.99" fill="#e8e2d2" opacity="0.72"/><circle cx="367.1" cy="130.8" r="1.37" fill="#e8e2d2" opacity="0.43"/><circle cx="1017.8" cy="20.6" r="0.73" fill="#ffffff" opacity="0.43"/><circle cx="567.2" cy="114.9" r="1.39" fill="#bcd2ff" opacity="0.40"/><circle cx="134.4" cy="21.9" r="0.73" fill="#ffffff" opacity="0.63"/><circle cx="228.1" cy="0.8" r="1.67" fill="#ffffff" opacity="0.68"/><circle cx="147.1" cy="19.7" r="1.50" fill="#e8e2d2" opacity="0.73"/><circle cx="1118.6" cy="83.1" r="0.93" fill="#ffffff" opacity="0.56"/><circle cx="86.5" cy="28.5" r="0.93" fill="#bcd2ff" opacity="0.41"/><circle cx="494.0" cy="2.9" r="1.26" fill="#e8e2d2" opacity="0.32"/><circle cx="747.4" cy="57.3" r="0.79" fill="#ffffff" opacity="0.86"/><circle cx="290.1" cy="50.4" r="1.66" fill="#bcd2ff" opacity="0.62"/><circle cx="627.6" cy="45.8" r="1.04" fill="#ffffff" opacity="0.30"/><circle cx="581.3" cy="9.6" r="0.81" fill="#ffffff" opacity="0.67"/><circle cx="1074.4" cy="176.5" r="1.07" fill="#bcd2ff" opacity="0.53"/><circle cx="734.8" cy="133.8" r="1.24" fill="#ffffff" opacity="0.90"/><circle cx="8.4" cy="137.1" r="0.58" fill="#e8e2d2" opacity="0.50"/><circle cx="822.2" cy="28.6" r="0.83" fill="#e8e2d2" opacity="0.29"/><circle cx="457.8" cy="75.0" r="0.92" fill="#e8e2d2" opacity="0.32"/><circle cx="758.1" cy="49.1" r="0.69" fill="#e8e2d2" opacity="0.64"/><circle cx="190.9" cy="172.4" r="0.51" fill="#e8e2d2" opacity="0.50"/><circle cx="584.0" cy="55.7" r="0.97" fill="#ffffff" opacity="0.47"/><circle cx="142.4" cy="68.0" r="1.15" fill="#ffffff" opacity="0.70"/><circle cx="961.2" cy="151.6" r="1.13" fill="#e8e2d2" opacity="0.31"/><circle cx="284.1" cy="93.0" r="0.90" fill="#e8e2d2" opacity="0.54"/><circle cx="743.3" cy="180.8" r="0.74" fill="#ffffff" opacity="0.72"/><circle cx="593.7" cy="106.6" r="1.42" fill="#bcd2ff" opacity="0.93"/><circle cx="329.7" cy="37.4" r="1.01" fill="#e8e2d2" opacity="0.81"/><circle cx="146.2" cy="3.6" r="1.41" fill="#bcd2ff" opacity="0.46"/><circle cx="885.3" cy="98.1" r="1.53" fill="#bcd2ff" opacity="0.65"/><circle cx="354.4" cy="145.6" r="1.60" fill="#e8e2d2" opacity="0.70"/><circle cx="17.1" cy="59.3" r="1.49" fill="#bcd2ff" opacity="0.70"/><circle cx="159.9" cy="7.3" r="1.65" fill="#bcd2ff" opacity="0.84"/><circle cx="1009.2" cy="122.7" r="1.30" fill="#e8e2d2" opacity="0.28"/><circle cx="430.8" cy="34.2" r="0.64" fill="#bcd2ff" opacity="0.72"/><circle cx="428.2" cy="17.6" r="1.03" fill="#e8e2d2" opacity="0.71"/><circle cx="206.6" cy="122.4" r="0.76" fill="#e8e2d2" opacity="0.43"/><circle cx="400.1" cy="178.1" r="0.89" fill="#ffffff" opacity="0.39"/><circle cx="722.2" cy="133.1" r="1.49" fill="#e8e2d2" opacity="0.79"/><circle cx="257.4" cy="40.9" r="1.08" fill="#ffffff" opacity="0.81"/><circle cx="821.2" cy="190.8" r="0.57" fill="#e8e2d2" opacity="0.68"/><circle cx="1016.3" cy="19.7" r="1.13" fill="#bcd2ff" opacity="0.59"/><circle cx="752.0" cy="123.2" r="0.65" fill="#e8e2d2" opacity="0.72"/><circle cx="156.8" cy="121.8" r="1.08" fill="#ffffff" opacity="0.30"/><circle cx="307.9" cy="127.9" r="1.13" fill="#bcd2ff" opacity="0.47"/><circle cx="169.1" cy="170.5" r="0.82" fill="#e8e2d2" opacity="0.40"/><circle cx="725.3" cy="13.4" r="1.25" fill="#ffffff" opacity="0.41"/><circle cx="669.6" cy="62.9" r="1.12" fill="#e8e2d2" opacity="0.82"/><circle cx="143.2" cy="13.8" r="0.96" fill="#bcd2ff" opacity="0.87"/><circle cx="520.6" cy="180.4" r="0.53" fill="#ffffff" opacity="0.50"/><circle cx="251.6" cy="70.6" r="0.70" fill="#bcd2ff" opacity="0.52"/><circle cx="266.9" cy="108.5" r="1.06" fill="#bcd2ff" opacity="0.35"/><circle cx="1129.4" cy="94.3" r="0.92" fill="#ffffff" opacity="0.42"/><circle cx="298.8" cy="60.6" r="0.64" fill="#ffffff" opacity="0.63"/><circle cx="645.6" cy="79.6" r="1.23" fill="#bcd2ff" opacity="0.61"/><circle cx="775.9" cy="42.4" r="1.15" fill="#ffffff" opacity="0.57"/><circle cx="239.7" cy="78.0" r="0.73" fill="#bcd2ff" opacity="0.72"/><circle cx="469.2" cy="129.6" r="0.71" fill="#e8e2d2" opacity="0.31"/><circle cx="510.0" cy="186.8" r="1.30" fill="#bcd2ff" opacity="0.54"/><circle cx="1182.1" cy="62.5" r="0.54" fill="#bcd2ff" opacity="0.63"/><circle cx="632.9" cy="147.8" r="0.66" fill="#bcd2ff" opacity="0.44"/><circle cx="563.8" cy="127.6" r="1.67" fill="#bcd2ff" opacity="0.82"/><circle cx="930.2" cy="131.0" r="1.35" fill="#e8e2d2" opacity="0.66"/><circle cx="673.7" cy="159.1" r="1.30" fill="#e8e2d2" opacity="0.36"/><circle cx="86.4" cy="144.7" r="1.12" fill="#bcd2ff" opacity="0.76"/><circle cx="471.8" cy="113.7" r="0.91" fill="#bcd2ff" opacity="0.61"/><circle cx="1065.2" cy="20.7" r="1.23" fill="#e8e2d2" opacity="0.56"/><circle cx="843.6" cy="127.1" r="0.86" fill="#ffffff" opacity="0.58"/><circle cx="174.3" cy="150.5" r="0.76" fill="#ffffff" opacity="0.31"/><circle cx="927.8" cy="140.8" r="0.71" fill="#ffffff" opacity="0.73"/><circle cx="1146.0" cy="178.6" r="0.96" fill="#ffffff" opacity="0.30"/><circle cx="1155.0" cy="51.4" r="1.50" fill="#e8e2d2" opacity="0.65"/><circle cx="642.5" cy="169.6" r="0.53" fill="#e8e2d2" opacity="0.81"/><circle cx="31.6" cy="165.2" r="1.47" fill="#e8e2d2" opacity="0.81"/><circle cx="1069.3" cy="119.7" r="0.75" fill="#e8e2d2" opacity="0.30"/><circle cx="306.1" cy="136.9" r="0.57" fill="#ffffff" opacity="0.77"/><circle cx="1110.8" cy="145.5" r="1.08" fill="#e8e2d2" opacity="0.55"/><circle cx="99.8" cy="148.7" r="0.88" fill="#ffffff" opacity="0.34"/><circle cx="1024.9" cy="18.8" r="1.30" fill="#ffffff" opacity="0.41"/><circle cx="59.4" cy="33.2" r="0.76" fill="#e8e2d2" opacity="0.69"/><circle cx="424.5" cy="6.0" r="0.60" fill="#bcd2ff" opacity="0.64"/><circle cx="922.1" cy="79.1" r="1.10" fill="#e8e2d2" opacity="0.47"/><path d="M 666.7 69.2 L 666.7 82.1 M 660.3 75.7 L 673.1 75.7" stroke="#ffffff" stroke-width="1" opacity="0.80"/><path d="M 618.3 14.1 L 618.3 23.4 M 613.6 18.8 L 622.9 18.8" stroke="#ffffff" stroke-width="1" opacity="0.67"/><path d="M 145.8 70.1 L 145.8 78.1 M 141.8 74.1 L 149.7 74.1" stroke="#ffffff" stroke-width="1" opacity="0.68"/><path d="M 792.8 125.1 L 792.8 138.6 M 786.0 131.9 L 799.5 131.9" stroke="#ffffff" stroke-width="1" opacity="0.73"/><path d="M 277.3 107.7 L 277.3 117.4 M 272.5 112.6 L 282.2 112.6" stroke="#ffffff" stroke-width="1" opacity="0.63"/><circle cx="938" cy="113" r="68" fill="url(#coreG)" opacity="0.55"/><circle cx="938" cy="113" r="26" fill="#ffc94d" opacity="0.9" filter="url(#bloomF)"/><circle cx="938" cy="113" r="14" fill="#fff3d6" opacity="0.95"/><circle cx="938" cy="113" r="35" fill="none" stroke="#ffc94d" stroke-width="1" opacity="0.6"/><ellipse cx="600" cy="238" rx="560" ry="60" fill="#ffc94d" opacity="0.10" filter="url(#bloomF)"/><ellipse cx="600" cy="252" rx="620" ry="26" fill="#ffc94d" opacity="0.14" filter="url(#bloomF)"/><path d="M 0 320 L 0 229 L 28 161 L 38 135 L 48 161 L 69 241 L 85 157 L 91 131 L 97 157 L 109 235 L 125 98 L 130 72 L 136 98 L 148 234 L 165 117 L 171 91 L 178 117 L 190 239 L 221 137 L 233 111 L 244 137 L 267 230 L 285 188 L 292 162 L 299 188 L 313 232 L 330 173 L 336 147 L 343 173 L 356 229 L 369 151 L 374 125 L 378 151 L 388 232 L 418 163 L 430 137 L 441 163 L 464 243 L 486 137 L 494 111 L 503 137 L 519 232 L 542 119 L 550 93 L 558 119 L 575 231 L 587 94 L 592 68 L 596 94 L 606 228 L 631 112 L 641 86 L 651 112 L 670 231 L 682 112 L 687 86 L 692 112 L 701 235 L 715 195 L 721 169 L 726 195 L 737 240 L 771 179 L 784 153 L 797 179 L 823 242 L 850 194 L 860 168 L 870 194 L 890 237 L 924 131 L 936 105 L 949 131 L 974 233 L 989 121 L 995 95 L 1000 121 L 1012 230 L 1036 165 L 1046 139 L 1055 165 L 1074 232 L 1099 190 L 1108 164 L 1117 190 L 1136 243 L 1147 131 L 1151 105 L 1155 131 L 1163 239 L 1180 188 L 1186 162 L 1192 188 L 1204 245 L 1200 320 Z" fill="#04070d" opacity="0.95"/><path d="M 0 320 L 0 268 L 8 192 Q 21 158 34 192 L 42 253 L 51 210 Q 64 176 77 210 L 86 262 L 95 182 Q 108 148 122 182 L 130 267 L 144 203 Q 164 169 185 203 L 198 261 L 208 185 Q 221 151 235 185 L 244 255 L 262 222 Q 289 188 316 222 L 334 267 L 339 201 Q 348 167 356 201 L 362 268 L 370 231 Q 382 197 394 231 L 402 270 L 409 211 Q 418 177 428 211 L 434 260 L 449 230 Q 471 196 492 230 L 507 263 L 517 182 Q 533 148 548 182 L 558 270 L 569 185 Q 586 151 602 185 L 613 268 L 621 193 Q 632 159 644 193 L 652 254 L 662 220 Q 678 186 693 220 L 704 254 L 717 217 Q 737 183 757 217 L 770 257 L 785 176 Q 808 142 831 176 L 846 256 L 862 210 Q 886 176 910 210 L 926 260 L 939 184 Q 958 150 977 184 L 990 267 L 1003 183 Q 1023 149 1043 183 L 1056 265 L 1062 220 Q 1070 186 1079 220 L 1084 255 L 1095 225 Q 1110 191 1126 225 L 1137 266 L 1154 172 Q 1179 138 1205 172 L 1222 256 L 1200 320 Z" fill="#0a0f1a" opacity="0.9"/><rect x="138" y="252.8" width="5" height="4.3" fill="#ffc94d" opacity="0.85"/><rect x="172" y="251.9" width="5" height="4.9" fill="#ffc94d" opacity="0.85"/><rect x="240" y="253.3" width="5" height="6.5" fill="#ffc94d" opacity="0.85"/><rect x="274" y="250.2" width="5" height="5.4" fill="#ffc94d" opacity="0.85"/><rect x="308" y="252.0" width="5" height="8.7" fill="#ffc94d" opacity="0.85"/><rect x="342" y="254.8" width="5" height="6.8" fill="#ffc94d" opacity="0.85"/><rect x="478" y="250.3" width="5" height="7.9" fill="#ffc94d" opacity="0.85"/><rect x="512" y="251.4" width="5" height="7.5" fill="#ffc94d" opacity="0.85"/><rect x="546" y="253.3" width="5" height="6.7" fill="#ffc94d" opacity="0.85"/><rect x="580" y="250.4" width="5" height="7.9" fill="#ffc94d" opacity="0.85"/><rect x="614" y="253.7" width="5" height="5.2" fill="#ffc94d" opacity="0.85"/><rect x="648" y="252.3" width="5" height="5.0" fill="#ffc94d" opacity="0.85"/><rect x="682" y="251.7" width="5" height="6.9" fill="#ffc94d" opacity="0.85"/><rect x="750" y="254.5" width="5" height="5.9" fill="#ffc94d" opacity="0.85"/><rect x="784" y="252.6" width="5" height="5.0" fill="#ffc94d" opacity="0.85"/><rect x="818" y="250.0" width="5" height="4.5" fill="#ffc94d" opacity="0.85"/><rect x="954" y="254.8" width="5" height="6.1" fill="#ffc94d" opacity="0.85"/><rect x="988" y="253.4" width="5" height="5.7" fill="#ffc94d" opacity="0.85"/><rect x="1056" y="249.9" width="5" height="5.8" fill="#ffc94d" opacity="0.85"/><rect x="1090" y="253.2" width="5" height="7.4" fill="#ffc94d" opacity="0.85"/><path d="M 0 320 L 0 292 Q 300 268 600 292 T 1200 292 L 1200 320 Z" fill="#02040a"/><ellipse cx="600.0" cy="290.0" rx="480.0" ry="22.0" fill="#ffc94d" opacity="0.14" filter="url(#bloomF)"/><polygon points="600,330 534,-85 666,-85" fill="#ffc94d" opacity="0.08"/><polygon points="600,330 449,-62 534,-85" fill="#ffc94d" opacity="0.08"/><polygon points="600,330 666,-85 751,-62" fill="#ffc94d" opacity="0.08"/><circle cx="430.2" cy="190.4" r="1.49" fill="#ffc94d" opacity="0.74" filter="url(#glowF)"/><circle cx="213.4" cy="266.7" r="1.23" fill="#ffc94d" opacity="0.72" filter="url(#glowF)"/><circle cx="1083.0" cy="217.1" r="1.05" fill="#ffc94d" opacity="0.55" filter="url(#glowF)"/><circle cx="337.3" cy="194.8" r="1.05" fill="#ffc94d" opacity="0.53" filter="url(#glowF)"/><circle cx="58.9" cy="214.6" r="2.24" fill="#ffc94d" opacity="0.43" filter="url(#glowF)"/><circle cx="321.8" cy="141.0" r="2.68" fill="#ffc94d" opacity="0.86" filter="url(#glowF)"/><circle cx="436.0" cy="294.6" r="1.39" fill="#ffc94d" opacity="0.44" filter="url(#glowF)"/><circle cx="168.6" cy="250.3" r="1.61" fill="#ffc94d" opacity="0.71" filter="url(#glowF)"/><circle cx="975.1" cy="211.5" r="1.01" fill="#ffc94d" opacity="0.56" filter="url(#glowF)"/><circle cx="443.4" cy="281.8" r="1.15" fill="#ffc94d" opacity="0.81" filter="url(#glowF)"/><circle cx="216.9" cy="304.3" r="2.07" fill="#ffc94d" opacity="0.49" filter="url(#glowF)"/><circle cx="595.5" cy="177.2" r="2.06" fill="#ffc94d" opacity="0.75" filter="url(#glowF)"/><circle cx="509.9" cy="185.9" r="2.79" fill="#ffc94d" opacity="0.41" filter="url(#glowF)"/><circle cx="145.2" cy="165.4" r="2.76" fill="#ffc94d" opacity="0.80" filter="url(#glowF)"/><circle cx="801.9" cy="233.4" r="2.25" fill="#ffc94d" opacity="0.40" filter="url(#glowF)"/><circle cx="837.9" cy="130.8" r="1.28" fill="#ffc94d" opacity="0.56" filter="url(#glowF)"/><circle cx="1035.8" cy="216.8" r="1.08" fill="#ffc94d" opacity="0.33" filter="url(#glowF)"/><circle cx="472.5" cy="177.7" r="2.26" fill="#ffc94d" opacity="0.63" filter="url(#glowF)"/><circle cx="242.4" cy="173.8" r="1.89" fill="#ffc94d" opacity="0.57" filter="url(#glowF)"/><circle cx="275.8" cy="155.7" r="2.72" fill="#ffc94d" opacity="0.76" filter="url(#glowF)"/><circle cx="230.0" cy="282.0" r="1.75" fill="#ffc94d" opacity="0.70" filter="url(#glowF)"/><circle cx="554.1" cy="129.7" r="1.99" fill="#ffc94d" opacity="0.45" filter="url(#glowF)"/><circle cx="795.5" cy="133.5" r="1.38" fill="#ffc94d" opacity="0.71" filter="url(#glowF)"/><circle cx="298.6" cy="288.5" r="2.43" fill="#ffc94d" opacity="0.87" filter="url(#glowF)"/><circle cx="1056.6" cy="168.4" r="2.16" fill="#ffc94d" opacity="0.69" filter="url(#glowF)"/><circle cx="146.6" cy="298.3" r="1.96" fill="#ffc94d" opacity="0.75" filter="url(#glowF)"/><circle cx="418.6" cy="302.8" r="1.49" fill="#ffc94d" opacity="0.59" filter="url(#glowF)"/><circle cx="471.9" cy="187.0" r="2.37" fill="#ffc94d" opacity="0.60" filter="url(#glowF)"/><circle cx="625.3" cy="167.5" r="1.56" fill="#ffc94d" opacity="0.39" filter="url(#glowF)"/><circle cx="1023.7" cy="221.1" r="1.52" fill="#ffc94d" opacity="0.34" filter="url(#glowF)"/><circle cx="528.2" cy="115.4" r="2.25" fill="#ffc94d" opacity="0.33" filter="url(#glowF)"/><circle cx="311.0" cy="208.7" r="2.59" fill="#ffc94d" opacity="0.87" filter="url(#glowF)"/><circle cx="799.9" cy="230.4" r="1.27" fill="#ffc94d" opacity="0.42" filter="url(#glowF)"/><circle cx="328.5" cy="185.2" r="2.03" fill="#ffc94d" opacity="0.88" filter="url(#glowF)"/><line x1="48" y1="26" x2="1152" y2="26" stroke="url(#giltG)" stroke-width="2"/><line x1="48" y1="294" x2="1152" y2="294" stroke="url(#giltG)" stroke-width="2"/><polygon points="600,20 606,26 600,32 594,26" fill="#0a0d14" stroke="#d8b26a" stroke-width="1.2"/><polygon points="600,288 606,294 600,300 594,294" fill="#0a0d14" stroke="#d8b26a" stroke-width="1.2"/><polygon points="48,22 52,26 48,30 44,26" fill="#d8b26a" /><polygon points="1152,22 1156,26 1152,30 1148,26" fill="#d8b26a" /><polygon points="48,290 52,294 48,298 44,294" fill="#d8b26a" /><polygon points="1152,290 1156,294 1152,298 1148,294" fill="#d8b26a" /><rect x="180" y="118" width="840" height="104" rx="10" fill="#04060b" opacity="0.78"/><rect x="180" y="118" width="840" height="104" rx="10" fill="none" stroke="url(#giltG)" stroke-width="1.8"/><path d="M 180 138.8 L 180 124.4 Q 180 118 186.4 118 L 200.8 118" fill="none" stroke="#d8b26a" stroke-width="1.7600000000000002" stroke-linecap="round"/><path d="M 184.0 134.0 Q 184.0 122.0 196.0 122.0" fill="none" stroke="#d8b26a" stroke-width="1.7600000000000002" stroke-linecap="round"/><circle cx="189.6" cy="127.6" r="1.92" fill="#d8b26a"/><path d="M 1020 138.8 L 1020 124.4 Q 1020 118 1013.6 118 L 999.2 118" fill="none" stroke="#d8b26a" stroke-width="1.7600000000000002" stroke-linecap="round"/><path d="M 1016.0 134.0 Q 1016.0 122.0 1004.0 122.0" fill="none" stroke="#d8b26a" stroke-width="1.7600000000000002" stroke-linecap="round"/><circle cx="1010.4" cy="127.6" r="1.92" fill="#d8b26a"/><path d="M 180 201.2 L 180 215.6 Q 180 222 186.4 222 L 200.8 222" fill="none" stroke="#d8b26a" stroke-width="1.7600000000000002" stroke-linecap="round"/><path d="M 184.0 206.0 Q 184.0 218.0 196.0 218.0" fill="none" stroke="#d8b26a" stroke-width="1.7600000000000002" stroke-linecap="round"/><circle cx="189.6" cy="212.4" r="1.92" fill="#d8b26a"/><path d="M 1020 201.2 L 1020 215.6 Q 1020 222 1013.6 222 L 999.2 222" fill="none" stroke="#d8b26a" stroke-width="1.7600000000000002" stroke-linecap="round"/><path d="M 1016.0 206.0 Q 1016.0 218.0 1004.0 218.0" fill="none" stroke="#d8b26a" stroke-width="1.7600000000000002" stroke-linecap="round"/><circle cx="1010.4" cy="212.4" r="1.92" fill="#d8b26a"/><text x="600" y="184" text-anchor="middle" font-family="'Cinzel','Palatino Linotype',Georgia,serif" font-size="44" font-weight="bold" fill="#e8e2d2" letter-spacing="3">THE DAWN OF HOPE RESONANCE</text><text x="600" y="206" text-anchor="middle" font-family="'Segoe UI',-apple-system,Roboto,'Helvetica Neue',sans-serif" font-size="12" font-weight="600" fill="#ffc94d" letter-spacing="3.5">PROJECT SOMNARAK &#9670; CYCLE 1,778</text><rect width="1200" height="320" fill="url(#vigG)"/><rect width="1200" height="320" filter="url(#grainF)" opacity="0.55"/></svg>